<svg width="392" height="16" viewBox="0 0 392 16" fill="none" xmlns="http://www.w3.org/2000/svg">
<path d="M3.5 6.18182C3.5 5.56061 3.65152 4.99432 3.95455 4.48295C4.25758 3.97159 4.66477 3.56439 5.17614 3.26136C5.6875 2.95833 6.25379 2.80682 6.875 2.80682C7.41288 2.80682 7.90909 2.92235 8.36364 3.15341C8.82197 3.38447 9.20076 3.70076 9.5 4.10227C9.79924 4.5 9.98485 4.95076 10.0568 5.45455H8.68182C8.60606 5.06439 8.39583 4.74621 8.05114 4.5C7.70644 4.25 7.31439 4.125 6.875 4.125C6.49621 4.125 6.15152 4.2178 5.84091 4.40341C5.5303 4.58902 5.2822 4.83712 5.09659 5.14773C4.91098 5.45833 4.81818 5.80303 4.81818 6.18182C4.81818 6.56061 4.91098 6.9053 5.09659 7.21591C5.2822 7.52652 5.5303 7.77462 5.84091 7.96023C6.15152 8.14583 6.49621 8.23864 6.875 8.23864C7.31439 8.23864 7.68561 8.11553 7.98864 7.86932C8.29545 7.61932 8.48864 7.29924 8.56818 6.90909H9.94318C9.87121 7.41288 9.69508 7.86553 9.41477 8.26705C9.13447 8.66477 8.77462 8.97917 8.33523 9.21023C7.89962 9.44129 7.41288 9.55682 6.875 9.55682C6.25379 9.55682 5.6875 9.4053 5.17614 9.10227C4.66477 8.79924 4.25758 8.39205 3.95455 7.88068C3.65152 7.36932 3.5 6.80303 3.5 6.18182ZM6.81818 12.1818C5.99242 12.1818 5.21591 12.0265 4.48864 11.7159C3.76515 11.4053 3.12689 10.9754 2.57386 10.4261C2.02462 9.87311 1.5928 9.23485 1.27841 8.51136C0.967803 7.78788 0.814394 7.01136 0.818182 6.18182C0.82197 5.35227 0.979167 4.57576 1.28977 3.85227C1.60417 3.12879 2.03598 2.49242 2.58523 1.94318C3.13447 1.39015 3.77083 0.958333 4.49432 0.647727C5.2178 0.337121 5.99242 0.181818 6.81818 0.181818C7.64773 0.181818 8.42424 0.337121 9.14773 0.647727C9.875 0.958333 10.5114 1.39015 11.0568 1.94318C11.6061 2.49242 12.036 3.12879 12.3466 3.85227C12.6572 4.57576 12.8144 5.35227 12.8182 6.18182C12.822 7.01136 12.6686 7.78788 12.358 8.51136C12.0473 9.23485 11.6174 9.87311 11.0682 10.4261C10.5189 10.9754 9.88068 11.4053 9.15341 11.7159C8.42614 12.0265 7.64773 12.1818 6.81818 12.1818ZM6.81818 10.8636C7.46591 10.8636 8.07386 10.7424 8.64205 10.5C9.21023 10.2576 9.70833 9.92235 10.1364 9.49432C10.5644 9.06629 10.8996 8.57008 11.142 8.00568C11.3845 7.4375 11.5038 6.83144 11.5 6.1875C11.4962 5.53977 11.3731 4.93182 11.1307 4.36364C10.8883 3.79545 10.553 3.29735 10.125 2.86932C9.69697 2.44129 9.20076 2.10606 8.63636 1.86364C8.07197 1.62121 7.46591 1.5 6.81818 1.5C6.17424 1.5 5.57008 1.62121 5.00568 1.86364C4.44129 2.10606 3.94508 2.44318 3.51705 2.875C3.08902 3.30303 2.75189 3.80114 2.50568 4.36932C2.26326 4.93371 2.14015 5.53977 2.13636 6.1875C2.13258 6.82765 2.25189 7.43182 2.49432 8C2.73674 8.56439 3.07197 9.06061 3.5 9.48864C3.93182 9.91667 4.42992 10.2538 4.99432 10.5C5.5625 10.7424 6.17045 10.8636 6.81818 10.8636ZM19.8452 12V10.9773L23.6861 6.77273C24.1368 6.2803 24.508 5.85227 24.7997 5.48864C25.0914 5.12121 25.3073 4.77652 25.4474 4.45455C25.5914 4.12879 25.6634 3.78788 25.6634 3.43182C25.6634 3.02273 25.5649 2.66856 25.3679 2.36932C25.1747 2.07008 24.9096 1.83901 24.5724 1.67614C24.2353 1.51326 23.8565 1.43182 23.4361 1.43182C22.9891 1.43182 22.599 1.52462 22.2656 1.71023C21.9361 1.89205 21.6804 2.14773 21.4986 2.47727C21.3205 2.80682 21.2315 3.19318 21.2315 3.63636H19.8906C19.8906 2.95455 20.0478 2.35606 20.3622 1.84091C20.6766 1.32576 21.1046 0.924242 21.6463 0.636363C22.1918 0.348484 22.8035 0.204545 23.4815 0.204545C24.1634 0.204545 24.7675 0.348484 25.294 0.636363C25.8205 0.924242 26.2334 1.3125 26.5327 1.80114C26.8319 2.28977 26.9815 2.83333 26.9815 3.43182C26.9815 3.85985 26.9039 4.27841 26.7486 4.6875C26.5971 5.0928 26.3319 5.54545 25.9531 6.04545C25.5781 6.54167 25.0573 7.14773 24.3906 7.86364L21.777 10.6591V10.75H27.1861V12H19.8452ZM33.3281 12.1591C32.4721 12.1591 31.7429 11.9261 31.1406 11.4602C30.5384 10.9905 30.0781 10.3106 29.7599 9.42045C29.4418 8.52652 29.2827 7.44697 29.2827 6.18182C29.2827 4.92424 29.4418 3.85038 29.7599 2.96023C30.0819 2.06629 30.544 1.38447 31.1463 0.914772C31.7524 0.441287 32.4796 0.204545 33.3281 0.204545C34.1766 0.204545 34.902 0.441287 35.5043 0.914772C36.1103 1.38447 36.5724 2.06629 36.8906 2.96023C37.2126 3.85038 37.3736 4.92424 37.3736 6.18182C37.3736 7.44697 37.2145 8.52652 36.8963 9.42045C36.5781 10.3106 36.1179 10.9905 35.5156 11.4602C34.9134 11.9261 34.1842 12.1591 33.3281 12.1591ZM33.3281 10.9091C34.1766 10.9091 34.8357 10.5 35.3054 9.68182C35.7751 8.86364 36.0099 7.69697 36.0099 6.18182C36.0099 5.17424 35.902 4.31629 35.6861 3.60795C35.474 2.89962 35.1671 2.35985 34.7656 1.98864C34.3679 1.61742 33.8887 1.43182 33.3281 1.43182C32.4872 1.43182 31.83 1.84659 31.3565 2.67614C30.883 3.50189 30.6463 4.67045 30.6463 6.18182C30.6463 7.18939 30.7524 8.04545 30.9645 8.75C31.1766 9.45455 31.4815 9.99053 31.8793 10.358C32.2808 10.7254 32.7637 10.9091 33.3281 10.9091ZM39.5327 12V10.9773L43.3736 6.77273C43.8243 6.2803 44.1955 5.85227 44.4872 5.48864C44.7789 5.12121 44.9948 4.77652 45.1349 4.45455C45.2789 4.12879 45.3509 3.78788 45.3509 3.43182C45.3509 3.02273 45.2524 2.66856 45.0554 2.36932C44.8622 2.07008 44.5971 1.83901 44.2599 1.67614C43.9228 1.51326 43.544 1.43182 43.1236 1.43182C42.6766 1.43182 42.2865 1.52462 41.9531 1.71023C41.6236 1.89205 41.3679 2.14773 41.1861 2.47727C41.008 2.80682 40.919 3.19318 40.919 3.63636H39.5781C39.5781 2.95455 39.7353 2.35606 40.0497 1.84091C40.3641 1.32576 40.7921 0.924242 41.3338 0.636363C41.8793 0.348484 42.491 0.204545 43.169 0.204545C43.8509 0.204545 44.455 0.348484 44.9815 0.636363C45.508 0.924242 45.9209 1.3125 46.2202 1.80114C46.5194 2.28977 46.669 2.83333 46.669 3.43182C46.669 3.85985 46.5914 4.27841 46.4361 4.6875C46.2846 5.0928 46.0194 5.54545 45.6406 6.04545C45.2656 6.54167 44.7448 7.14773 44.0781 7.86364L41.4645 10.6591V10.75H46.8736V12H39.5327ZM49.2202 12V10.9773L53.0611 6.77273C53.5118 6.2803 53.883 5.85227 54.1747 5.48864C54.4664 5.12121 54.6823 4.77652 54.8224 4.45455C54.9664 4.12879 55.0384 3.78788 55.0384 3.43182C55.0384 3.02273 54.9399 2.66856 54.7429 2.36932C54.5497 2.07008 54.2846 1.83901 53.9474 1.67614C53.6103 1.51326 53.2315 1.43182 52.8111 1.43182C52.3641 1.43182 51.974 1.52462 51.6406 1.71023C51.3111 1.89205 51.0554 2.14773 50.8736 2.47727C50.6955 2.80682 50.6065 3.19318 50.6065 3.63636H49.2656C49.2656 2.95455 49.4228 2.35606 49.7372 1.84091C50.0516 1.32576 50.4796 0.924242 51.0213 0.636363C51.5668 0.348484 52.1785 0.204545 52.8565 0.204545C53.5384 0.204545 54.1425 0.348484 54.669 0.636363C55.1955 0.924242 55.6084 1.3125 55.9077 1.80114C56.2069 2.28977 56.3565 2.83333 56.3565 3.43182C56.3565 3.85985 56.2789 4.27841 56.1236 4.6875C55.9721 5.0928 55.7069 5.54545 55.3281 6.04545C54.9531 6.54167 54.4323 7.14773 53.7656 7.86364L51.152 10.6591V10.75H56.5611V12H49.2202ZM73.4304 6.18182C73.4304 7.40909 73.2088 8.4697 72.7656 9.36364C72.3224 10.2576 71.7145 10.947 70.9418 11.4318C70.169 11.9167 69.2865 12.1591 68.294 12.1591C67.3016 12.1591 66.419 11.9167 65.6463 11.4318C64.8736 10.947 64.2656 10.2576 63.8224 9.36364C63.3793 8.4697 63.1577 7.40909 63.1577 6.18182C63.1577 4.95455 63.3793 3.89394 63.8224 3C64.2656 2.10606 64.8736 1.41667 65.6463 0.931818C66.419 0.446969 67.3016 0.204545 68.294 0.204545C69.2865 0.204545 70.169 0.446969 70.9418 0.931818C71.7145 1.41667 72.3224 2.10606 72.7656 3C73.2088 3.89394 73.4304 4.95455 73.4304 6.18182ZM72.0668 6.18182C72.0668 5.17424 71.8982 4.32386 71.5611 3.63068C71.2277 2.9375 70.7751 2.41288 70.2031 2.05682C69.6349 1.70076 68.9986 1.52273 68.294 1.52273C67.5895 1.52273 66.9512 1.70076 66.3793 2.05682C65.8111 2.41288 65.3584 2.9375 65.0213 3.63068C64.688 4.32386 64.5213 5.17424 64.5213 6.18182C64.5213 7.18939 64.688 8.03977 65.0213 8.73295C65.3584 9.42614 65.8111 9.95076 66.3793 10.3068C66.9512 10.6629 67.5895 10.8409 68.294 10.8409C68.9986 10.8409 69.6349 10.6629 70.2031 10.3068C70.7751 9.95076 71.2277 9.42614 71.5611 8.73295C71.8982 8.03977 72.0668 7.18939 72.0668 6.18182ZM75.6179 15.2727V3.27273H76.9134V4.65909H77.0724C77.1709 4.50758 77.3073 4.31439 77.4815 4.07955C77.6596 3.84091 77.9134 3.62879 78.2429 3.44318C78.5762 3.25379 79.027 3.15909 79.5952 3.15909C80.33 3.15909 80.9777 3.3428 81.5384 3.71023C82.099 4.07765 82.5365 4.59848 82.8509 5.27273C83.1652 5.94697 83.3224 6.74242 83.3224 7.65909C83.3224 8.58333 83.1652 9.38447 82.8509 10.0625C82.5365 10.7367 82.1009 11.2595 81.544 11.6307C80.9872 11.9981 80.3452 12.1818 79.6179 12.1818C79.0573 12.1818 78.6084 12.089 78.2713 11.9034C77.9342 11.714 77.6747 11.5 77.4929 11.2614C77.3111 11.0189 77.1709 10.8182 77.0724 10.6591H76.9588V15.2727H75.6179ZM76.9361 7.63636C76.9361 8.29545 77.0327 8.87689 77.2259 9.38068C77.419 9.88068 77.7012 10.2727 78.0724 10.5568C78.4437 10.8371 78.8982 10.9773 79.4361 10.9773C79.9967 10.9773 80.4645 10.8295 80.8395 10.5341C81.2183 10.2348 81.5024 9.83333 81.6918 9.32955C81.8849 8.82197 81.9815 8.25758 81.9815 7.63636C81.9815 7.02273 81.8868 6.4697 81.6974 5.97727C81.5118 5.48106 81.2296 5.08902 80.8509 4.80114C80.4759 4.50947 80.0043 4.36364 79.4361 4.36364C78.8906 4.36364 78.4323 4.50189 78.0611 4.77841C77.6899 5.05114 77.4096 5.43371 77.2202 5.92614C77.0308 6.41477 76.9361 6.98485 76.9361 7.63636ZM89.1634 3.27273V4.40909H84.6406V3.27273H89.1634ZM85.9588 1.18182H87.2997V9.5C87.2997 9.87879 87.3546 10.1629 87.4645 10.3523C87.5781 10.5379 87.7221 10.6629 87.8963 10.7273C88.0743 10.7879 88.2618 10.8182 88.4588 10.8182C88.6065 10.8182 88.7277 10.8106 88.8224 10.7955C88.9171 10.7765 88.9929 10.7614 89.0497 10.75L89.3224 11.9545C89.2315 11.9886 89.1046 12.0227 88.9418 12.0568C88.7789 12.0947 88.5724 12.1136 88.3224 12.1136C87.9437 12.1136 87.5724 12.0322 87.2088 11.8693C86.849 11.7064 86.5497 11.4583 86.3111 11.125C86.0762 10.7917 85.9588 10.3712 85.9588 9.86364V1.18182ZM91.1804 12V3.27273H92.5213V12H91.1804ZM91.8622 1.81818C91.6009 1.81818 91.3755 1.72917 91.1861 1.55114C91.0005 1.37311 90.9077 1.15909 90.9077 0.909091C90.9077 0.659091 91.0005 0.445076 91.1861 0.267045C91.3755 0.089015 91.6009 0 91.8622 0C92.1236 0 92.3471 0.089015 92.5327 0.267045C92.7221 0.445076 92.8168 0.659091 92.8168 0.909091C92.8168 1.15909 92.7221 1.37311 92.5327 1.55114C92.3471 1.72917 92.1236 1.81818 91.8622 1.81818ZM94.9773 12V3.27273H96.2727V4.63636H96.3864C96.5682 4.17045 96.8617 3.80871 97.267 3.55114C97.6723 3.28977 98.1591 3.15909 98.7273 3.15909C99.303 3.15909 99.7822 3.28977 100.165 3.55114C100.551 3.80871 100.852 4.17045 101.068 4.63636H101.159C101.383 4.18561 101.718 3.82765 102.165 3.5625C102.612 3.29356 103.148 3.15909 103.773 3.15909C104.553 3.15909 105.191 3.40341 105.688 3.89205C106.184 4.37689 106.432 5.13258 106.432 6.15909V12H105.091V6.15909C105.091 5.51515 104.915 5.05492 104.562 4.77841C104.21 4.50189 103.795 4.36364 103.318 4.36364C102.705 4.36364 102.229 4.54924 101.892 4.92045C101.555 5.28788 101.386 5.75379 101.386 6.31818V12H100.023V6.02273C100.023 5.52652 99.8617 5.12689 99.5398 4.82386C99.2178 4.51705 98.803 4.36364 98.2955 4.36364C97.947 4.36364 97.6212 4.45644 97.3182 4.64205C97.0189 4.82765 96.7765 5.08523 96.5909 5.41477C96.4091 5.74053 96.3182 6.11742 96.3182 6.54545V12H94.9773ZM114.384 8.43182V3.27273H115.724V12H114.384V10.5227H114.293C114.088 10.9659 113.77 11.3428 113.338 11.6534C112.906 11.9602 112.361 12.1136 111.702 12.1136C111.156 12.1136 110.671 11.9943 110.247 11.7557C109.823 11.5133 109.49 11.1496 109.247 10.6648C109.005 10.1761 108.884 9.56061 108.884 8.81818V3.27273H110.224V8.72727C110.224 9.36364 110.402 9.87121 110.759 10.25C111.118 10.6288 111.577 10.8182 112.134 10.8182C112.467 10.8182 112.806 10.733 113.151 10.5625C113.499 10.392 113.791 10.1307 114.026 9.77841C114.264 9.42614 114.384 8.97727 114.384 8.43182ZM124.362 5.22727L123.158 5.56818C123.082 5.36742 122.97 5.17235 122.822 4.98295C122.679 4.78977 122.482 4.63068 122.232 4.50568C121.982 4.38068 121.661 4.31818 121.271 4.31818C120.737 4.31818 120.292 4.44129 119.936 4.6875C119.584 4.92992 119.408 5.23864 119.408 5.61364C119.408 5.94697 119.529 6.21023 119.771 6.40341C120.014 6.59659 120.393 6.75758 120.908 6.88636L122.203 7.20455C122.983 7.39394 123.565 7.68371 123.947 8.07386C124.33 8.46023 124.521 8.95833 124.521 9.56818C124.521 10.0682 124.377 10.5152 124.089 10.9091C123.805 11.303 123.408 11.6136 122.896 11.8409C122.385 12.0682 121.79 12.1818 121.112 12.1818C120.222 12.1818 119.485 11.9886 118.902 11.6023C118.319 11.2159 117.949 10.6515 117.794 9.90909L119.067 9.59091C119.188 10.0606 119.417 10.4129 119.754 10.6477C120.095 10.8826 120.54 11 121.089 11C121.714 11 122.211 10.8674 122.578 10.6023C122.949 10.3333 123.135 10.0114 123.135 9.63636C123.135 9.33333 123.029 9.07955 122.817 8.875C122.605 8.66667 122.279 8.51136 121.839 8.40909L120.385 8.06818C119.586 7.87879 118.999 7.58523 118.624 7.1875C118.252 6.78598 118.067 6.28409 118.067 5.68182C118.067 5.18939 118.205 4.75379 118.482 4.375C118.762 3.99621 119.143 3.69886 119.624 3.48295C120.108 3.26705 120.658 3.15909 121.271 3.15909C122.135 3.15909 122.813 3.34848 123.305 3.72727C123.802 4.10606 124.154 4.60606 124.362 5.22727ZM124.898 1.61364V0.363636H133.625V1.61364H129.966V12H128.557V1.61364H124.898ZM138.011 12.1818C137.17 12.1818 136.445 11.9962 135.835 11.625C135.229 11.25 134.761 10.7273 134.432 10.0568C134.106 9.38258 133.943 8.59848 133.943 7.70455C133.943 6.81061 134.106 6.02273 134.432 5.34091C134.761 4.6553 135.22 4.12121 135.807 3.73864C136.398 3.35227 137.087 3.15909 137.875 3.15909C138.33 3.15909 138.778 3.23485 139.222 3.38636C139.665 3.53788 140.068 3.78409 140.432 4.125C140.795 4.46212 141.085 4.90909 141.301 5.46591C141.517 6.02273 141.625 6.70833 141.625 7.52273V8.09091H134.898V6.93182H140.261C140.261 6.43939 140.163 6 139.966 5.61364C139.773 5.22727 139.496 4.92235 139.136 4.69886C138.78 4.47538 138.36 4.36364 137.875 4.36364C137.341 4.36364 136.879 4.49621 136.489 4.76136C136.102 5.02273 135.805 5.36364 135.597 5.78409C135.388 6.20455 135.284 6.6553 135.284 7.13636V7.90909C135.284 8.56818 135.398 9.12689 135.625 9.58523C135.856 10.0398 136.176 10.3864 136.585 10.625C136.994 10.8598 137.47 10.9773 138.011 10.9773C138.364 10.9773 138.682 10.928 138.966 10.8295C139.254 10.7273 139.502 10.5758 139.71 10.375C139.919 10.1705 140.08 9.91667 140.193 9.61364L141.489 9.97727C141.352 10.4167 141.123 10.803 140.801 11.1364C140.479 11.4659 140.081 11.7235 139.608 11.9091C139.134 12.0909 138.602 12.1818 138.011 12.1818ZM147.21 12.1818C146.392 12.1818 145.688 11.9886 145.097 11.6023C144.506 11.2159 144.051 10.6837 143.733 10.0057C143.415 9.32765 143.256 8.55303 143.256 7.68182C143.256 6.79545 143.419 6.01326 143.744 5.33523C144.074 4.65341 144.532 4.12121 145.119 3.73864C145.71 3.35227 146.4 3.15909 147.188 3.15909C147.801 3.15909 148.354 3.27273 148.847 3.5C149.339 3.72727 149.742 4.04545 150.057 4.45455C150.371 4.86364 150.566 5.34091 150.642 5.88636H149.301C149.199 5.48864 148.972 5.13636 148.619 4.82955C148.271 4.51894 147.801 4.36364 147.21 4.36364C146.688 4.36364 146.229 4.5 145.835 4.77273C145.445 5.04167 145.14 5.42235 144.92 5.91477C144.705 6.40341 144.597 6.97727 144.597 7.63636C144.597 8.31061 144.703 8.89773 144.915 9.39773C145.131 9.89773 145.434 10.286 145.824 10.5625C146.218 10.839 146.68 10.9773 147.21 10.9773C147.559 10.9773 147.875 10.9167 148.159 10.7955C148.443 10.6742 148.684 10.5 148.881 10.2727C149.078 10.0455 149.218 9.77273 149.301 9.45455H150.642C150.566 9.9697 150.379 10.4337 150.08 10.8466C149.784 11.2557 149.392 11.5814 148.903 11.8239C148.419 12.0625 147.854 12.1818 147.21 12.1818ZM153.943 6.75V12H152.602V0.363636H153.943V4.63636H154.057C154.261 4.18561 154.568 3.82765 154.977 3.5625C155.39 3.29356 155.939 3.15909 156.625 3.15909C157.22 3.15909 157.741 3.27841 158.188 3.51705C158.634 3.75189 158.981 4.11364 159.227 4.60227C159.477 5.08712 159.602 5.70455 159.602 6.45455V12H158.261V6.54545C158.261 5.85227 158.081 5.31629 157.722 4.9375C157.366 4.55492 156.871 4.36364 156.239 4.36364C155.799 4.36364 155.405 4.45644 155.057 4.64205C154.712 4.82765 154.439 5.09848 154.239 5.45455C154.042 5.81061 153.943 6.24242 153.943 6.75ZM163.033 12.0909C162.752 12.0909 162.512 11.9905 162.311 11.7898C162.11 11.589 162.01 11.3485 162.01 11.0682C162.01 10.7879 162.11 10.5473 162.311 10.3466C162.512 10.1458 162.752 10.0455 163.033 10.0455C163.313 10.0455 163.554 10.1458 163.754 10.3466C163.955 10.5473 164.055 10.7879 164.055 11.0682C164.055 11.2538 164.008 11.4242 163.913 11.5795C163.822 11.7348 163.699 11.8598 163.544 11.9545C163.393 12.0455 163.222 12.0909 163.033 12.0909ZM170.507 1.61364V0.363636H179.234V1.61364H175.575V12H174.166V1.61364H170.507ZM183.507 12.1818C182.719 12.1818 182.028 11.9943 181.433 11.6193C180.842 11.2443 180.38 10.7197 180.047 10.0455C179.717 9.37121 179.553 8.58333 179.553 7.68182C179.553 6.77273 179.717 5.97917 180.047 5.30114C180.38 4.62311 180.842 4.09659 181.433 3.72159C182.028 3.34659 182.719 3.15909 183.507 3.15909C184.295 3.15909 184.984 3.34659 185.575 3.72159C186.17 4.09659 186.632 4.62311 186.962 5.30114C187.295 5.97917 187.462 6.77273 187.462 7.68182C187.462 8.58333 187.295 9.37121 186.962 10.0455C186.632 10.7197 186.17 11.2443 185.575 11.6193C184.984 11.9943 184.295 12.1818 183.507 12.1818ZM183.507 10.9773C184.106 10.9773 184.598 10.8239 184.984 10.517C185.371 10.2102 185.657 9.80682 185.842 9.30682C186.028 8.80682 186.121 8.26515 186.121 7.68182C186.121 7.09848 186.028 6.55492 185.842 6.05114C185.657 5.54735 185.371 5.14015 184.984 4.82955C184.598 4.51894 184.106 4.36364 183.507 4.36364C182.909 4.36364 182.416 4.51894 182.03 4.82955C181.643 5.14015 181.357 5.54735 181.172 6.05114C180.986 6.55492 180.893 7.09848 180.893 7.68182C180.893 8.26515 180.986 8.80682 181.172 9.30682C181.357 9.80682 181.643 10.2102 182.03 10.517C182.416 10.8239 182.909 10.9773 183.507 10.9773ZM192.804 12.1818C192.077 12.1818 191.435 11.9981 190.878 11.6307C190.321 11.2595 189.885 10.7367 189.571 10.0625C189.257 9.38447 189.099 8.58333 189.099 7.65909C189.099 6.74242 189.257 5.94697 189.571 5.27273C189.885 4.59848 190.323 4.07765 190.884 3.71023C191.444 3.3428 192.092 3.15909 192.827 3.15909C193.395 3.15909 193.844 3.25379 194.173 3.44318C194.507 3.62879 194.76 3.84091 194.935 4.07955C195.113 4.31439 195.251 4.50758 195.349 4.65909H195.463V0.363636H196.804V12H195.509V10.6591H195.349C195.251 10.8182 195.111 11.0189 194.929 11.2614C194.747 11.5 194.488 11.714 194.151 11.9034C193.813 12.089 193.365 12.1818 192.804 12.1818ZM192.986 10.9773C193.524 10.9773 193.978 10.8371 194.349 10.5568C194.721 10.2727 195.003 9.88068 195.196 9.38068C195.389 8.87689 195.486 8.29545 195.486 7.63636C195.486 6.98485 195.391 6.41477 195.202 5.92614C195.012 5.43371 194.732 5.05114 194.361 4.77841C193.99 4.50189 193.531 4.36364 192.986 4.36364C192.418 4.36364 191.944 4.50947 191.565 4.80114C191.19 5.08902 190.908 5.48106 190.719 5.97727C190.533 6.4697 190.44 7.02273 190.44 7.63636C190.44 8.25758 190.535 8.82197 190.724 9.32955C190.918 9.83333 191.202 10.2348 191.577 10.5341C191.955 10.8295 192.425 10.9773 192.986 10.9773ZM202.991 12.1818C202.204 12.1818 201.512 11.9943 200.918 11.6193C200.327 11.2443 199.865 10.7197 199.531 10.0455C199.202 9.37121 199.037 8.58333 199.037 7.68182C199.037 6.77273 199.202 5.97917 199.531 5.30114C199.865 4.62311 200.327 4.09659 200.918 3.72159C201.512 3.34659 202.204 3.15909 202.991 3.15909C203.779 3.15909 204.469 3.34659 205.06 3.72159C205.654 4.09659 206.116 4.62311 206.446 5.30114C206.779 5.97917 206.946 6.77273 206.946 7.68182C206.946 8.58333 206.779 9.37121 206.446 10.0455C206.116 10.7197 205.654 11.2443 205.06 11.6193C204.469 11.9943 203.779 12.1818 202.991 12.1818ZM202.991 10.9773C203.59 10.9773 204.082 10.8239 204.469 10.517C204.855 10.2102 205.141 9.80682 205.327 9.30682C205.512 8.80682 205.605 8.26515 205.605 7.68182C205.605 7.09848 205.512 6.55492 205.327 6.05114C205.141 5.54735 204.855 5.14015 204.469 4.82955C204.082 4.51894 203.59 4.36364 202.991 4.36364C202.393 4.36364 201.901 4.51894 201.514 4.82955C201.128 5.14015 200.842 5.54735 200.656 6.05114C200.471 6.55492 200.378 7.09848 200.378 7.68182C200.378 8.26515 200.471 8.80682 200.656 9.30682C200.842 9.80682 201.128 10.2102 201.514 10.517C201.901 10.8239 202.393 10.9773 202.991 10.9773ZM215.175 5.22727L213.97 5.56818C213.894 5.36742 213.783 5.17235 213.635 4.98295C213.491 4.78977 213.294 4.63068 213.044 4.50568C212.794 4.38068 212.474 4.31818 212.084 4.31818C211.55 4.31818 211.105 4.44129 210.749 4.6875C210.396 4.92992 210.22 5.23864 210.22 5.61364C210.22 5.94697 210.341 6.21023 210.584 6.40341C210.826 6.59659 211.205 6.75758 211.72 6.88636L213.016 7.20455C213.796 7.39394 214.377 7.68371 214.76 8.07386C215.143 8.46023 215.334 8.95833 215.334 9.56818C215.334 10.0682 215.19 10.5152 214.902 10.9091C214.618 11.303 214.22 11.6136 213.709 11.8409C213.197 12.0682 212.603 12.1818 211.925 12.1818C211.035 12.1818 210.298 11.9886 209.714 11.6023C209.131 11.2159 208.762 10.6515 208.607 9.90909L209.879 9.59091C210 10.0606 210.23 10.4129 210.567 10.6477C210.908 10.8826 211.353 11 211.902 11C212.527 11 213.023 10.8674 213.391 10.6023C213.762 10.3333 213.947 10.0114 213.947 9.63636C213.947 9.33333 213.841 9.07955 213.629 8.875C213.417 8.66667 213.091 8.51136 212.652 8.40909L211.197 8.06818C210.398 7.87879 209.811 7.58523 209.436 7.1875C209.065 6.78598 208.879 6.28409 208.879 5.68182C208.879 5.18939 209.018 4.75379 209.294 4.375C209.574 3.99621 209.955 3.69886 210.436 3.48295C210.921 3.26705 211.47 3.15909 212.084 3.15909C212.947 3.15909 213.625 3.34848 214.118 3.72727C214.614 4.10606 214.966 4.60606 215.175 5.22727ZM225.398 12.1818C224.61 12.1818 223.919 11.9943 223.324 11.6193C222.733 11.2443 222.271 10.7197 221.938 10.0455C221.608 9.37121 221.443 8.58333 221.443 7.68182C221.443 6.77273 221.608 5.97917 221.938 5.30114C222.271 4.62311 222.733 4.09659 223.324 3.72159C223.919 3.34659 224.61 3.15909 225.398 3.15909C226.186 3.15909 226.875 3.34659 227.466 3.72159C228.061 4.09659 228.523 4.62311 228.852 5.30114C229.186 5.97917 229.352 6.77273 229.352 7.68182C229.352 8.58333 229.186 9.37121 228.852 10.0455C228.523 10.7197 228.061 11.2443 227.466 11.6193C226.875 11.9943 226.186 12.1818 225.398 12.1818ZM225.398 10.9773C225.996 10.9773 226.489 10.8239 226.875 10.517C227.261 10.2102 227.547 9.80682 227.733 9.30682C227.919 8.80682 228.011 8.26515 228.011 7.68182C228.011 7.09848 227.919 6.55492 227.733 6.05114C227.547 5.54735 227.261 5.14015 226.875 4.82955C226.489 4.51894 225.996 4.36364 225.398 4.36364C224.799 4.36364 224.307 4.51894 223.92 4.82955C223.534 5.14015 223.248 5.54735 223.062 6.05114C222.877 6.55492 222.784 7.09848 222.784 7.68182C222.784 8.26515 222.877 8.80682 223.062 9.30682C223.248 9.80682 223.534 10.2102 223.92 10.517C224.307 10.8239 224.799 10.9773 225.398 10.9773ZM237.581 5.22727L236.376 5.56818C236.301 5.36742 236.189 5.17235 236.041 4.98295C235.897 4.78977 235.7 4.63068 235.45 4.50568C235.2 4.38068 234.88 4.31818 234.49 4.31818C233.956 4.31818 233.511 4.44129 233.155 4.6875C232.803 4.92992 232.626 5.23864 232.626 5.61364C232.626 5.94697 232.748 6.21023 232.99 6.40341C233.232 6.59659 233.611 6.75758 234.126 6.88636L235.422 7.20455C236.202 7.39394 236.784 7.68371 237.166 8.07386C237.549 8.46023 237.74 8.95833 237.74 9.56818C237.74 10.0682 237.596 10.5152 237.308 10.9091C237.024 11.303 236.626 11.6136 236.115 11.8409C235.604 12.0682 235.009 12.1818 234.331 12.1818C233.441 12.1818 232.704 11.9886 232.121 11.6023C231.537 11.2159 231.168 10.6515 231.013 9.90909L232.286 9.59091C232.407 10.0606 232.636 10.4129 232.973 10.6477C233.314 10.8826 233.759 11 234.308 11C234.933 11 235.429 10.8674 235.797 10.6023C236.168 10.3333 236.354 10.0114 236.354 9.63636C236.354 9.33333 236.248 9.07955 236.036 8.875C235.823 8.66667 235.498 8.51136 235.058 8.40909L233.604 8.06818C232.804 7.87879 232.217 7.58523 231.842 7.1875C231.471 6.78598 231.286 6.28409 231.286 5.68182C231.286 5.18939 231.424 4.75379 231.7 4.375C231.981 3.99621 232.361 3.69886 232.842 3.48295C233.327 3.26705 233.876 3.15909 234.49 3.15909C235.354 3.15909 236.032 3.34848 236.524 3.72727C237.02 4.10606 237.373 4.60606 237.581 5.22727ZM247.554 12.1818C246.827 12.1818 246.185 11.9981 245.628 11.6307C245.071 11.2595 244.635 10.7367 244.321 10.0625C244.007 9.38447 243.849 8.58333 243.849 7.65909C243.849 6.74242 244.007 5.94697 244.321 5.27273C244.635 4.59848 245.073 4.07765 245.634 3.71023C246.194 3.3428 246.842 3.15909 247.577 3.15909C248.145 3.15909 248.594 3.25379 248.923 3.44318C249.257 3.62879 249.51 3.84091 249.685 4.07955C249.863 4.31439 250.001 4.50758 250.099 4.65909H250.213V0.363636H251.554V12H250.259V10.6591H250.099C250.001 10.8182 249.861 11.0189 249.679 11.2614C249.497 11.5 249.238 11.714 248.901 11.9034C248.563 12.089 248.115 12.1818 247.554 12.1818ZM247.736 10.9773C248.274 10.9773 248.728 10.8371 249.099 10.5568C249.471 10.2727 249.753 9.88068 249.946 9.38068C250.139 8.87689 250.236 8.29545 250.236 7.63636C250.236 6.98485 250.141 6.41477 249.952 5.92614C249.762 5.43371 249.482 5.05114 249.111 4.77841C248.74 4.50189 248.281 4.36364 247.736 4.36364C247.168 4.36364 246.694 4.50947 246.315 4.80114C245.94 5.08902 245.658 5.48106 245.469 5.97727C245.283 6.4697 245.19 7.02273 245.19 7.63636C245.19 8.25758 245.285 8.82197 245.474 9.32955C245.668 9.83333 245.952 10.2348 246.327 10.5341C246.705 10.8295 247.175 10.9773 247.736 10.9773ZM254.196 12V3.27273H255.537V12H254.196ZM254.878 1.81818C254.616 1.81818 254.391 1.72917 254.202 1.55114C254.016 1.37311 253.923 1.15909 253.923 0.909091C253.923 0.659091 254.016 0.445076 254.202 0.267045C254.391 0.089015 254.616 0 254.878 0C255.139 0 255.363 0.089015 255.548 0.267045C255.738 0.445076 255.832 0.659091 255.832 0.909091C255.832 1.15909 255.738 1.37311 255.548 1.55114C255.363 1.72917 255.139 1.81818 254.878 1.81818ZM257.993 12V3.27273H259.288V4.59091H259.379C259.538 4.15909 259.826 3.80871 260.243 3.53977C260.66 3.27083 261.129 3.13636 261.652 3.13636C261.75 3.13636 261.874 3.13826 262.021 3.14205C262.169 3.14583 262.281 3.15152 262.357 3.15909V4.52273C262.311 4.51136 262.207 4.49432 262.044 4.47159C261.885 4.44508 261.716 4.43182 261.538 4.43182C261.114 4.43182 260.735 4.52083 260.402 4.69886C260.072 4.87311 259.811 5.11553 259.618 5.42614C259.429 5.73295 259.334 6.08333 259.334 6.47727V12H257.993ZM267.339 12.1818C266.499 12.1818 265.773 11.9962 265.163 11.625C264.557 11.25 264.089 10.7273 263.76 10.0568C263.434 9.38258 263.271 8.59848 263.271 7.70455C263.271 6.81061 263.434 6.02273 263.76 5.34091C264.089 4.6553 264.548 4.12121 265.135 3.73864C265.726 3.35227 266.415 3.15909 267.203 3.15909C267.658 3.15909 268.107 3.23485 268.55 3.38636C268.993 3.53788 269.396 3.78409 269.76 4.125C270.124 4.46212 270.413 4.90909 270.629 5.46591C270.845 6.02273 270.953 6.70833 270.953 7.52273V8.09091H264.226V6.93182H269.589C269.589 6.43939 269.491 6 269.294 5.61364C269.101 5.22727 268.824 4.92235 268.464 4.69886C268.108 4.47538 267.688 4.36364 267.203 4.36364C266.669 4.36364 266.207 4.49621 265.817 4.76136C265.43 5.02273 265.133 5.36364 264.925 5.78409C264.716 6.20455 264.612 6.6553 264.612 7.13636V7.90909C264.612 8.56818 264.726 9.12689 264.953 9.58523C265.184 10.0398 265.504 10.3864 265.913 10.625C266.322 10.8598 266.798 10.9773 267.339 10.9773C267.692 10.9773 268.01 10.928 268.294 10.8295C268.582 10.7273 268.83 10.5758 269.038 10.375C269.247 10.1705 269.408 9.91667 269.521 9.61364L270.817 9.97727C270.68 10.4167 270.451 10.803 270.129 11.1364C269.807 11.4659 269.41 11.7235 268.936 11.9091C268.463 12.0909 267.93 12.1818 267.339 12.1818ZM272.993 12V3.27273H274.334V12H272.993ZM273.675 1.81818C273.413 1.81818 273.188 1.72917 272.999 1.55114C272.813 1.37311 272.72 1.15909 272.72 0.909091C272.72 0.659091 272.813 0.445076 272.999 0.267045C273.188 0.089015 273.413 0 273.675 0C273.936 0 274.16 0.089015 274.345 0.267045C274.535 0.445076 274.629 0.659091 274.629 0.909091C274.629 1.15909 274.535 1.37311 274.345 1.55114C274.16 1.72917 273.936 1.81818 273.675 1.81818ZM280.585 3.27273V4.40909H276.062V3.27273H280.585ZM277.381 1.18182H278.722V9.5C278.722 9.87879 278.777 10.1629 278.886 10.3523C279 10.5379 279.144 10.6629 279.318 10.7273C279.496 10.7879 279.684 10.8182 279.881 10.8182C280.028 10.8182 280.15 10.8106 280.244 10.7955C280.339 10.7765 280.415 10.7614 280.472 10.75L280.744 11.9545C280.653 11.9886 280.527 12.0227 280.364 12.0568C280.201 12.0947 279.994 12.1136 279.744 12.1136C279.366 12.1136 278.994 12.0322 278.631 11.8693C278.271 11.7064 277.972 11.4583 277.733 11.125C277.498 10.7917 277.381 10.3712 277.381 9.86364V1.18182ZM286.054 12.1818C285.266 12.1818 284.575 11.9943 283.98 11.6193C283.389 11.2443 282.927 10.7197 282.594 10.0455C282.264 9.37121 282.099 8.58333 282.099 7.68182C282.099 6.77273 282.264 5.97917 282.594 5.30114C282.927 4.62311 283.389 4.09659 283.98 3.72159C284.575 3.34659 285.266 3.15909 286.054 3.15909C286.842 3.15909 287.531 3.34659 288.122 3.72159C288.717 4.09659 289.179 4.62311 289.509 5.30114C289.842 5.97917 290.009 6.77273 290.009 7.68182C290.009 8.58333 289.842 9.37121 289.509 10.0455C289.179 10.7197 288.717 11.2443 288.122 11.6193C287.531 11.9943 286.842 12.1818 286.054 12.1818ZM286.054 10.9773C286.652 10.9773 287.145 10.8239 287.531 10.517C287.918 10.2102 288.204 9.80682 288.389 9.30682C288.575 8.80682 288.668 8.26515 288.668 7.68182C288.668 7.09848 288.575 6.55492 288.389 6.05114C288.204 5.54735 287.918 5.14015 287.531 4.82955C287.145 4.51894 286.652 4.36364 286.054 4.36364C285.455 4.36364 284.963 4.51894 284.577 4.82955C284.19 5.14015 283.904 5.54735 283.719 6.05114C283.533 6.55492 283.44 7.09848 283.44 7.68182C283.44 8.26515 283.533 8.80682 283.719 9.30682C283.904 9.80682 284.19 10.2102 284.577 10.517C284.963 10.8239 285.455 10.9773 286.054 10.9773ZM298.237 5.22727L297.033 5.56818C296.957 5.36742 296.845 5.17235 296.697 4.98295C296.554 4.78977 296.357 4.63068 296.107 4.50568C295.857 4.38068 295.536 4.31818 295.146 4.31818C294.612 4.31818 294.167 4.44129 293.811 4.6875C293.459 4.92992 293.283 5.23864 293.283 5.61364C293.283 5.94697 293.404 6.21023 293.646 6.40341C293.889 6.59659 294.268 6.75758 294.783 6.88636L296.078 7.20455C296.858 7.39394 297.44 7.68371 297.822 8.07386C298.205 8.46023 298.396 8.95833 298.396 9.56818C298.396 10.0682 298.252 10.5152 297.964 10.9091C297.68 11.303 297.283 11.6136 296.771 11.8409C296.26 12.0682 295.665 12.1818 294.987 12.1818C294.097 12.1818 293.36 11.9886 292.777 11.6023C292.194 11.2159 291.824 10.6515 291.669 9.90909L292.942 9.59091C293.063 10.0606 293.292 10.4129 293.629 10.6477C293.97 10.8826 294.415 11 294.964 11C295.589 11 296.086 10.8674 296.453 10.6023C296.824 10.3333 297.01 10.0114 297.01 9.63636C297.01 9.33333 296.904 9.07955 296.692 8.875C296.48 8.66667 296.154 8.51136 295.714 8.40909L294.26 8.06818C293.461 7.87879 292.874 7.58523 292.499 7.1875C292.127 6.78598 291.942 6.28409 291.942 5.68182C291.942 5.18939 292.08 4.75379 292.357 4.375C292.637 3.99621 293.018 3.69886 293.499 3.48295C293.983 3.26705 294.533 3.15909 295.146 3.15909C296.01 3.15909 296.688 3.34848 297.18 3.72727C297.677 4.10606 298.029 4.60606 298.237 5.22727ZM304.915 12V3.27273H306.21V4.59091H306.301C306.46 4.15909 306.748 3.80871 307.165 3.53977C307.581 3.27083 308.051 3.13636 308.574 3.13636C308.672 3.13636 308.795 3.13826 308.943 3.14205C309.091 3.14583 309.203 3.15152 309.278 3.15909V4.52273C309.233 4.51136 309.129 4.49432 308.966 4.47159C308.807 4.44508 308.638 4.43182 308.46 4.43182C308.036 4.43182 307.657 4.52083 307.324 4.69886C306.994 4.87311 306.733 5.11553 306.54 5.42614C306.35 5.73295 306.256 6.08333 306.256 6.47727V12H304.915ZM314.261 12.1818C313.42 12.1818 312.695 11.9962 312.085 11.625C311.479 11.25 311.011 10.7273 310.682 10.0568C310.356 9.38258 310.193 8.59848 310.193 7.70455C310.193 6.81061 310.356 6.02273 310.682 5.34091C311.011 4.6553 311.47 4.12121 312.057 3.73864C312.648 3.35227 313.337 3.15909 314.125 3.15909C314.58 3.15909 315.028 3.23485 315.472 3.38636C315.915 3.53788 316.318 3.78409 316.682 4.125C317.045 4.46212 317.335 4.90909 317.551 5.46591C317.767 6.02273 317.875 6.70833 317.875 7.52273V8.09091H311.148V6.93182H316.511C316.511 6.43939 316.413 6 316.216 5.61364C316.023 5.22727 315.746 4.92235 315.386 4.69886C315.03 4.47538 314.61 4.36364 314.125 4.36364C313.591 4.36364 313.129 4.49621 312.739 4.76136C312.352 5.02273 312.055 5.36364 311.847 5.78409C311.638 6.20455 311.534 6.6553 311.534 7.13636V7.90909C311.534 8.56818 311.648 9.12689 311.875 9.58523C312.106 10.0398 312.426 10.3864 312.835 10.625C313.244 10.8598 313.72 10.9773 314.261 10.9773C314.614 10.9773 314.932 10.928 315.216 10.8295C315.504 10.7273 315.752 10.5758 315.96 10.375C316.169 10.1705 316.33 9.91667 316.443 9.61364L317.739 9.97727C317.602 10.4167 317.373 10.803 317.051 11.1364C316.729 11.4659 316.331 11.7235 315.858 11.9091C315.384 12.0909 314.852 12.1818 314.261 12.1818ZM326.097 5.22727L324.892 5.56818C324.816 5.36742 324.705 5.17235 324.557 4.98295C324.413 4.78977 324.216 4.63068 323.966 4.50568C323.716 4.38068 323.396 4.31818 323.006 4.31818C322.472 4.31818 322.027 4.44129 321.67 4.6875C321.318 4.92992 321.142 5.23864 321.142 5.61364C321.142 5.94697 321.263 6.21023 321.506 6.40341C321.748 6.59659 322.127 6.75758 322.642 6.88636L323.938 7.20455C324.718 7.39394 325.299 7.68371 325.682 8.07386C326.064 8.46023 326.256 8.95833 326.256 9.56818C326.256 10.0682 326.112 10.5152 325.824 10.9091C325.54 11.303 325.142 11.6136 324.631 11.8409C324.119 12.0682 323.525 12.1818 322.847 12.1818C321.956 12.1818 321.22 11.9886 320.636 11.6023C320.053 11.2159 319.684 10.6515 319.528 9.90909L320.801 9.59091C320.922 10.0606 321.152 10.4129 321.489 10.6477C321.83 10.8826 322.275 11 322.824 11C323.449 11 323.945 10.8674 324.312 10.6023C324.684 10.3333 324.869 10.0114 324.869 9.63636C324.869 9.33333 324.763 9.07955 324.551 8.875C324.339 8.66667 324.013 8.51136 323.574 8.40909L322.119 8.06818C321.32 7.87879 320.733 7.58523 320.358 7.1875C319.987 6.78598 319.801 6.28409 319.801 5.68182C319.801 5.18939 319.939 4.75379 320.216 4.375C320.496 3.99621 320.877 3.69886 321.358 3.48295C321.843 3.26705 322.392 3.15909 323.006 3.15909C323.869 3.15909 324.547 3.34848 325.04 3.72727C325.536 4.10606 325.888 4.60606 326.097 5.22727ZM331.933 12.1818C331.092 12.1818 330.367 11.9962 329.757 11.625C329.151 11.25 328.683 10.7273 328.354 10.0568C328.028 9.38258 327.865 8.59848 327.865 7.70455C327.865 6.81061 328.028 6.02273 328.354 5.34091C328.683 4.6553 329.142 4.12121 329.729 3.73864C330.32 3.35227 331.009 3.15909 331.797 3.15909C332.251 3.15909 332.7 3.23485 333.143 3.38636C333.587 3.53788 333.99 3.78409 334.354 4.125C334.717 4.46212 335.007 4.90909 335.223 5.46591C335.439 6.02273 335.547 6.70833 335.547 7.52273V8.09091H328.82V6.93182H334.183C334.183 6.43939 334.085 6 333.888 5.61364C333.695 5.22727 333.418 4.92235 333.058 4.69886C332.702 4.47538 332.282 4.36364 331.797 4.36364C331.263 4.36364 330.801 4.49621 330.411 4.76136C330.024 5.02273 329.727 5.36364 329.518 5.78409C329.31 6.20455 329.206 6.6553 329.206 7.13636V7.90909C329.206 8.56818 329.32 9.12689 329.547 9.58523C329.778 10.0398 330.098 10.3864 330.507 10.625C330.916 10.8598 331.392 10.9773 331.933 10.9773C332.286 10.9773 332.604 10.928 332.888 10.8295C333.176 10.7273 333.424 10.5758 333.632 10.375C333.84 10.1705 334.001 9.91667 334.115 9.61364L335.411 9.97727C335.274 10.4167 335.045 10.803 334.723 11.1364C334.401 11.4659 334.003 11.7235 333.53 11.9091C333.056 12.0909 332.524 12.1818 331.933 12.1818ZM337.587 12V3.27273H338.882V4.59091H338.973C339.132 4.15909 339.42 3.80871 339.837 3.53977C340.253 3.27083 340.723 3.13636 341.246 3.13636C341.344 3.13636 341.467 3.13826 341.615 3.14205C341.763 3.14583 341.875 3.15152 341.95 3.15909V4.52273C341.905 4.51136 341.801 4.49432 341.638 4.47159C341.479 4.44508 341.31 4.43182 341.132 4.43182C340.708 4.43182 340.329 4.52083 339.996 4.69886C339.666 4.87311 339.405 5.11553 339.212 5.42614C339.022 5.73295 338.928 6.08333 338.928 6.47727V12H337.587ZM350.942 3.27273L347.714 12H346.351L343.124 3.27273H344.578L346.987 10.2273H347.078L349.487 3.27273H350.942ZM355.014 12.2045C354.461 12.2045 353.959 12.1004 353.509 11.892C353.058 11.6799 352.7 11.375 352.435 10.9773C352.17 10.5758 352.037 10.0909 352.037 9.52273C352.037 9.02273 352.135 8.61742 352.332 8.30682C352.529 7.99242 352.793 7.74621 353.122 7.56818C353.452 7.39015 353.815 7.25758 354.213 7.17045C354.615 7.07955 355.018 7.00758 355.423 6.95455C355.954 6.88636 356.384 6.83523 356.713 6.80114C357.046 6.76326 357.289 6.70076 357.44 6.61364C357.596 6.52652 357.673 6.375 357.673 6.15909V6.11364C357.673 5.55303 357.52 5.11742 357.213 4.80682C356.91 4.49621 356.45 4.34091 355.832 4.34091C355.192 4.34091 354.69 4.48106 354.327 4.76136C353.963 5.04167 353.707 5.34091 353.56 5.65909L352.287 5.20455C352.514 4.67424 352.817 4.26136 353.196 3.96591C353.579 3.66667 353.995 3.45833 354.446 3.34091C354.901 3.2197 355.348 3.15909 355.787 3.15909C356.067 3.15909 356.389 3.19318 356.753 3.26136C357.12 3.32576 357.474 3.46023 357.815 3.66477C358.16 3.86932 358.446 4.17803 358.673 4.59091C358.901 5.00379 359.014 5.55682 359.014 6.25V12H357.673V10.8182H357.605C357.514 11.0076 357.363 11.2102 357.151 11.4261C356.938 11.642 356.656 11.8258 356.304 11.9773C355.952 12.1288 355.522 12.2045 355.014 12.2045ZM355.219 11C355.749 11 356.196 10.8958 356.56 10.6875C356.927 10.4792 357.204 10.2102 357.389 9.88068C357.579 9.55114 357.673 9.20455 357.673 8.84091V7.61364C357.616 7.68182 357.491 7.74432 357.298 7.80114C357.109 7.85417 356.889 7.90151 356.639 7.94318C356.393 7.98106 356.152 8.01515 355.918 8.04545C355.687 8.07197 355.499 8.0947 355.355 8.11364C355.007 8.15909 354.681 8.23295 354.378 8.33523C354.079 8.43371 353.836 8.58333 353.651 8.78409C353.469 8.98106 353.378 9.25 353.378 9.59091C353.378 10.0568 353.55 10.4091 353.895 10.6477C354.243 10.8826 354.685 11 355.219 11ZM364.757 12.1818C364.03 12.1818 363.388 11.9981 362.831 11.6307C362.274 11.2595 361.839 10.7367 361.524 10.0625C361.21 9.38447 361.053 8.58333 361.053 7.65909C361.053 6.74242 361.21 5.94697 361.524 5.27273C361.839 4.59848 362.276 4.07765 362.837 3.71023C363.397 3.3428 364.045 3.15909 364.78 3.15909C365.348 3.15909 365.797 3.25379 366.126 3.44318C366.46 3.62879 366.714 3.84091 366.888 4.07955C367.066 4.31439 367.204 4.50758 367.303 4.65909H367.416V0.363636H368.757V12H367.462V10.6591H367.303C367.204 10.8182 367.064 11.0189 366.882 11.2614C366.7 11.5 366.441 11.714 366.104 11.9034C365.767 12.089 365.318 12.1818 364.757 12.1818ZM364.939 10.9773C365.477 10.9773 365.931 10.8371 366.303 10.5568C366.674 10.2727 366.956 9.88068 367.149 9.38068C367.342 8.87689 367.439 8.29545 367.439 7.63636C367.439 6.98485 367.344 6.41477 367.155 5.92614C366.965 5.43371 366.685 5.05114 366.314 4.77841C365.943 4.50189 365.484 4.36364 364.939 4.36364C364.371 4.36364 363.897 4.50947 363.518 4.80114C363.143 5.08902 362.861 5.48106 362.672 5.97727C362.486 6.4697 362.393 7.02273 362.393 7.63636C362.393 8.25758 362.488 8.82197 362.678 9.32955C362.871 9.83333 363.155 10.2348 363.53 10.5341C363.909 10.8295 364.378 10.9773 364.939 10.9773ZM374.945 12.1818C374.157 12.1818 373.465 11.9943 372.871 11.6193C372.28 11.2443 371.818 10.7197 371.484 10.0455C371.155 9.37121 370.99 8.58333 370.99 7.68182C370.99 6.77273 371.155 5.97917 371.484 5.30114C371.818 4.62311 372.28 4.09659 372.871 3.72159C373.465 3.34659 374.157 3.15909 374.945 3.15909C375.732 3.15909 376.422 3.34659 377.013 3.72159C377.607 4.09659 378.07 4.62311 378.399 5.30114C378.732 5.97917 378.899 6.77273 378.899 7.68182C378.899 8.58333 378.732 9.37121 378.399 10.0455C378.07 10.7197 377.607 11.2443 377.013 11.6193C376.422 11.9943 375.732 12.1818 374.945 12.1818ZM374.945 10.9773C375.543 10.9773 376.036 10.8239 376.422 10.517C376.808 10.2102 377.094 9.80682 377.28 9.30682C377.465 8.80682 377.558 8.26515 377.558 7.68182C377.558 7.09848 377.465 6.55492 377.28 6.05114C377.094 5.54735 376.808 5.14015 376.422 4.82955C376.036 4.51894 375.543 4.36364 374.945 4.36364C374.346 4.36364 373.854 4.51894 373.467 4.82955C373.081 5.14015 372.795 5.54735 372.609 6.05114C372.424 6.55492 372.331 7.09848 372.331 7.68182C372.331 8.26515 372.424 8.80682 372.609 9.30682C372.795 9.80682 373.081 10.2102 373.467 10.517C373.854 10.8239 374.346 10.9773 374.945 10.9773ZM387.128 5.22727L385.923 5.56818C385.848 5.36742 385.736 5.17235 385.588 4.98295C385.444 4.78977 385.247 4.63068 384.997 4.50568C384.747 4.38068 384.427 4.31818 384.037 4.31818C383.503 4.31818 383.058 4.44129 382.702 4.6875C382.349 4.92992 382.173 5.23864 382.173 5.61364C382.173 5.94697 382.295 6.21023 382.537 6.40341C382.779 6.59659 383.158 6.75758 383.673 6.88636L384.969 7.20455C385.749 7.39394 386.33 7.68371 386.713 8.07386C387.096 8.46023 387.287 8.95833 387.287 9.56818C387.287 10.0682 387.143 10.5152 386.855 10.9091C386.571 11.303 386.173 11.6136 385.662 11.8409C385.151 12.0682 384.556 12.1818 383.878 12.1818C382.988 12.1818 382.251 11.9886 381.668 11.6023C381.084 11.2159 380.715 10.6515 380.56 9.90909L381.832 9.59091C381.954 10.0606 382.183 10.4129 382.52 10.6477C382.861 10.8826 383.306 11 383.855 11C384.48 11 384.976 10.8674 385.344 10.6023C385.715 10.3333 385.901 10.0114 385.901 9.63636C385.901 9.33333 385.795 9.07955 385.582 8.875C385.37 8.66667 385.045 8.51136 384.605 8.40909L383.151 8.06818C382.351 7.87879 381.764 7.58523 381.389 7.1875C381.018 6.78598 380.832 6.28409 380.832 5.68182C380.832 5.18939 380.971 4.75379 381.247 4.375C381.527 3.99621 381.908 3.69886 382.389 3.48295C382.874 3.26705 383.423 3.15909 384.037 3.15909C384.901 3.15909 385.579 3.34848 386.071 3.72727C386.567 4.10606 386.92 4.60606 387.128 5.22727ZM390.283 12.0909C390.002 12.0909 389.762 11.9905 389.561 11.7898C389.36 11.589 389.26 11.3485 389.26 11.0682C389.26 10.7879 389.36 10.5473 389.561 10.3466C389.762 10.1458 390.002 10.0455 390.283 10.0455C390.563 10.0455 390.804 10.1458 391.004 10.3466C391.205 10.5473 391.305 10.7879 391.305 11.0682C391.305 11.2538 391.258 11.4242 391.163 11.5795C391.072 11.7348 390.949 11.8598 390.794 11.9545C390.643 12.0455 390.472 12.0909 390.283 12.0909Z" fill="#98A2B3"/>
</svg>
